<?xml version="1.0" standalone="no"?>
<!DOCTYPE svg PUBLIC "-//W3C//DTD SVG 20010904//EN"
 "http://www.w3.org/TR/2001/REC-SVG-20010904/DTD/svg10.dtd">
<svg version="1.0" xmlns="http://www.w3.org/2000/svg"
 width="512.000000pt" height="512.000000pt" viewBox="0 0 512.000000 512.000000"
 preserveAspectRatio="xMidYMid meet">
<metadata>
Created by potrace 1.16, written by Peter Selinger 2001-2019
</metadata>
<g transform="translate(0.000000,512.000000) scale(0.100000,-0.100000)"
fill="#000000" stroke="none">
<path d="M0 2560 l0 -2560 2560 0 2560 0 0 2560 0 2560 -2560 0 -2560 0 0
-2560z m1229 1731 c45 -24 107 -90 129 -140 14 -29 17 -71 17 -219 0 -181 0
-184 -24 -203 -31 -25 -69 -24 -98 3 -22 21 -23 28 -23 169 0 158 -6 188 -48
232 l-26 27 -152 0 c-144 0 -154 -1 -179 -22 -14 -13 -30 -41 -35 -63 -12 -52
-13 -2137 -1 -2188 5 -22 19 -50 32 -63 22 -23 27 -24 179 -24 146 0 158 1
179 21 52 49 51 28 51 898 l0 810 26 20 c33 26 65 27 95 2 22 -18 24 -27 27
-135 l4 -116 154 0 154 0 0 108 c0 59 5 124 10 144 12 42 89 132 132 154 73
38 174 36 258 -5 l39 -19 28 30 c64 68 167 96 260 72 32 -8 64 -21 72 -29 13
-12 19 -9 48 25 67 78 190 112 290 80 51 -17 114 -62 137 -98 l19 -29 49 19
c140 53 298 -13 354 -148 11 -25 16 -77 17 -168 l2 -131 165 0 165 0 5 405 c5
384 6 407 26 450 24 53 74 104 126 131 33 17 60 19 218 19 201 0 222 -5 288
-64 60 -55 83 -118 89 -251 l6 -112 126 -5 c135 -5 155 -11 209 -62 66 -61 62
-12 62 -836 0 -831 5 -775 -68 -842 -51 -47 -93 -58 -223 -58 l-106 0 -6 -113
c-6 -127 -18 -165 -74 -233 -62 -75 -73 -78 -286 -82 -186 -4 -188 -4 -242 23
-57 27 -103 77 -126 135 -10 27 -15 128 -19 440 l-5 405 -105 0 -105 0 -8 -99
c-4 -60 -14 -115 -26 -140 -10 -22 -71 -106 -135 -184 l-116 -144 0 -89 c0
-76 -3 -92 -20 -109 -25 -25 -71 -26 -101 -1 -23 18 -24 25 -24 144 l0 124 40
49 c22 27 47 56 56 64 22 20 156 187 168 208 5 9 9 124 10 254 1 232 0 238
-21 258 -21 19 -34 20 -341 20 -310 0 -320 -1 -349 -21 -61 -44 -68 -111 -16
-166 21 -22 27 -23 210 -23 l188 0 31 -28 c39 -35 42 -77 8 -105 -22 -18 -50
-18 -682 -15 l-659 3 4 -77 c5 -90 9 -96 153 -272 54 -66 104 -131 111 -145
11 -21 14 -150 14 -667 0 -634 0 -642 -21 -668 -26 -33 -75 -35 -107 -6 l-22
21 0 628 0 628 -35 46 c-19 25 -38 47 -42 49 -5 1 -39 41 -77 88 -94 116 -116
167 -123 285 l-6 95 -103 0 -103 0 -3 -407 c-3 -390 -4 -410 -24 -453 -26 -57
-100 -125 -150 -139 -51 -14 -348 -14 -398 0 -55 15 -131 89 -151 147 -9 26
-19 97 -22 160 l-6 112 -106 0 c-58 0 -124 5 -146 11 -54 15 -101 52 -125 99
-19 38 -20 60 -20 790 0 673 2 754 16 783 45 88 93 110 255 115 l126 4 6 117
c7 138 25 188 87 245 68 62 84 65 288 66 161 0 187 -2 221 -19z m1999 -2588
c9 -13 12 -116 12 -437 -1 -397 -2 -422 -19 -443 -24 -29 -70 -30 -102 -4
l-24 19 -3 420 -3 420 33 27 c25 21 38 25 62 21 17 -4 37 -14 44 -23z"/>
<path d="M3921 4125 l-31 -35 0 -1088 c0 -599 3 -1103 6 -1120 4 -18 18 -43
32 -57 24 -25 27 -25 181 -25 l157 0 27 28 c15 16 32 44 37 63 6 18 10 156 10
305 0 250 1 272 18 287 25 23 74 21 103 -2 22 -18 24 -28 27 -135 l4 -116 103
0 c86 0 107 3 126 19 l24 19 0 711 c0 668 -1 711 -18 728 -14 15 -38 19 -127
21 l-109 4 -3 -521 -3 -520 -22 -23 c-16 -15 -34 -22 -58 -21 -69 2 -65 -46
-65 707 0 434 -4 694 -10 718 -6 20 -24 48 -41 62 -30 25 -34 26 -184 26
l-153 0 -31 -35z"/>
<path d="M407 3723 c-10 -3 -22 -16 -28 -29 -14 -38 -12 -1400 2 -1427 19 -34
27 -37 142 -37 l107 0 0 750 0 750 -102 -1 c-57 -1 -111 -3 -121 -6z"/>
<path d="M2718 3722 c-16 -2 -42 -20 -62 -43 l-36 -39 0 -208 c0 -189 2 -210
20 -239 20 -33 20 -33 103 -33 119 0 119 -1 117 266 0 127 -5 214 -12 229 -19
42 -81 74 -130 67z"/>
<path d="M2313 3635 c-17 -7 -42 -28 -57 -47 -26 -35 -26 -37 -26 -205 l0
-170 33 -37 c43 -49 84 -60 134 -35 66 32 72 52 72 243 0 101 -4 177 -11 192
-22 49 -97 79 -145 59z"/>
<path d="M3050 3580 l-40 -40 0 -157 c0 -140 2 -162 20 -191 l20 -33 86 3 87
3 18 35 c16 29 19 57 19 177 0 123 -3 147 -19 174 -26 43 -69 69 -113 69 -31
0 -46 -8 -78 -40z"/>
<path d="M1923 3579 c-17 -5 -43 -23 -57 -40 -25 -30 -26 -34 -26 -180 l0
-149 36 -40 c31 -34 42 -40 76 -40 44 0 88 21 108 54 20 31 26 268 8 320 -21
62 -80 93 -145 75z"/>
<path d="M1380 2980 l0 -180 550 0 c521 0 550 1 542 18 -13 24 -15 134 -3 165
l10 26 -36 -16 c-76 -31 -186 -14 -258 42 l-32 23 -52 -36 c-45 -32 -61 -37
-122 -40 -114 -7 -199 38 -255 134 l-26 44 -159 0 -159 0 0 -180z"/>
<path d="M3390 3150 c0 -5 3 -10 8 -10 16 0 92 -78 102 -106 7 -16 14 -75 17
-131 l6 -103 109 0 108 0 -2 178 -3 177 -172 3 c-113 2 -173 -1 -173 -8z"/>
</g>
</svg>
