<?xml version="1.0" standalone="no"?>
<!DOCTYPE svg PUBLIC "-//W3C//DTD SVG 20010904//EN"
 "http://www.w3.org/TR/2001/REC-SVG-20010904/DTD/svg10.dtd">
<svg version="1.0" xmlns="http://www.w3.org/2000/svg"
 width="512.000000pt" height="512.000000pt" viewBox="0 0 512.000000 512.000000"
 preserveAspectRatio="xMidYMid meet">
<metadata>
Created by potrace 1.16, written by Peter Selinger 2001-2019
</metadata>
<g transform="translate(0.000000,512.000000) scale(0.100000,-0.100000)"
fill="#000000" stroke="none">
<path d="M0 2560 l0 -2560 2560 0 2560 0 0 2560 0 2560 -2560 0 -2560 0 0
-2560z m1623 2146 c48 -20 94 -72 106 -121 14 -54 14 -215 1 -249 -7 -20 -17
-26 -39 -26 -15 0 -33 6 -39 13 -6 6 -12 65 -14 129 -3 107 -5 119 -27 142
-23 25 -29 26 -131 26 -102 0 -108 -1 -131 -26 l-24 -26 0 -775 0 -775 28 -24
c26 -22 37 -24 127 -24 90 0 101 2 127 24 l28 24 3 578 c2 401 6 582 13 591 7
7 25 13 40 13 37 0 49 -28 49 -116 l0 -64 110 0 110 0 0 75 c0 114 29 171 105
206 52 24 106 24 157 -1 l42 -20 25 24 c14 13 36 29 49 36 35 17 122 16 159
-2 31 -15 33 -15 48 8 22 35 87 64 140 64 58 0 108 -21 144 -61 27 -29 32 -31
62 -20 48 17 108 13 154 -9 75 -36 105 -99 105 -221 l0 -79 115 0 115 0 0 261
c0 289 6 331 53 380 49 49 83 59 206 59 120 0 152 -8 194 -48 44 -42 58 -76
64 -166 l6 -84 86 -4 c99 -5 142 -23 171 -71 19 -31 20 -54 20 -552 0 -498 -1
-521 -20 -552 -30 -49 -66 -63 -168 -63 l-89 0 -6 -90 c-7 -95 -20 -130 -59
-167 -43 -41 -90 -53 -203 -53 -131 0 -185 22 -225 91 -25 44 -25 46 -28 327
l-3 282 -73 0 -73 0 -7 -72 c-8 -84 -23 -113 -126 -237 l-70 -83 0 -62 c0 -35
-5 -67 -12 -74 -19 -19 -55 -14 -72 10 -18 25 -22 138 -7 166 5 10 48 64 95
122 99 121 99 121 94 323 -2 109 -6 140 -18 147 -8 5 -117 10 -241 10 -203 0
-229 -2 -249 -18 -34 -27 -32 -88 4 -118 25 -23 35 -24 155 -24 112 0 130 -2
145 -19 13 -14 14 -24 7 -45 l-11 -26 -465 0 -465 0 0 -34 c0 -68 13 -95 97
-197 47 -57 89 -111 94 -121 12 -23 12 -869 -1 -902 -11 -30 -53 -44 -75 -26
-13 11 -15 75 -15 450 l0 438 -70 83 c-103 124 -118 153 -126 237 l-7 72 -73
0 -73 0 -3 -282 c-3 -281 -3 -283 -28 -327 -40 -69 -94 -91 -225 -91 -113 0
-160 12 -203 53 -39 37 -52 72 -59 167 l-6 90 -89 0 c-102 0 -138 14 -168 63
-19 31 -20 54 -20 552 0 498 1 521 20 552 29 48 72 66 171 71 l86 4 6 84 c3
45 13 96 21 111 18 36 64 79 96 92 39 15 245 13 283 -3z m1399 -1800 c4 -6 8
-144 8 -307 0 -250 -2 -298 -15 -309 -22 -18 -64 -4 -75 26 -6 14 -10 146 -10
295 l0 270 24 24 c25 25 52 25 68 1z m-2612 -1081 l0 -315 60 0 60 0 0 -80 0
-80 -165 0 -165 0 0 395 0 395 105 0 105 0 0 -315z m370 265 l0 -50 -105 0
-105 0 0 50 0 50 105 0 105 0 0 -50z m780 -35 l0 -85 40 20 c53 27 118 26 161
-3 58 -39 59 -45 59 -354 l0 -283 -100 0 -100 0 0 270 c0 237 -2 271 -16 277
-35 13 -39 -12 -42 -282 l-3 -265 -100 0 -99 0 0 395 0 395 100 0 100 0 0 -85z
m2020 35 l0 -50 -105 0 -105 0 0 50 0 50 105 0 105 0 0 -50z m780 -35 l0 -85
40 20 c53 27 118 26 161 -3 58 -39 59 -45 59 -354 l0 -283 -100 0 -100 0 0
270 c0 237 -2 271 -16 277 -35 13 -39 -12 -42 -282 l-3 -265 -100 0 -99 0 0
395 0 395 100 0 100 0 0 -85z m-2260 -25 c0 -49 1 -50 31 -50 17 0 28 4 24 10
-4 6 26 10 83 10 l89 0 18 -160 c10 -88 21 -160 25 -160 4 0 15 72 25 160 l18
160 84 0 c79 0 83 -1 84 -22 0 -13 8 -90 17 -173 l17 -150 18 144 c10 79 21
157 24 173 l6 28 83 0 c70 0 84 -3 84 -16 0 -22 -69 -583 -76 -611 -4 -22 -9
-23 -108 -23 l-104 0 -6 28 c-3 15 -11 72 -17 127 -11 93 -29 151 -29 95 0
-14 -8 -75 -17 -137 l-17 -113 -108 0 c-59 0 -108 3 -108 8 -3 40 -78 561 -79
545 -1 -19 -7 -23 -31 -23 l-30 0 0 -189 c0 -209 6 -241 45 -241 23 0 25 -3
25 -50 l0 -50 -90 0 c-99 0 -140 13 -162 53 -9 15 -14 90 -16 250 -4 215 -5
227 -23 227 -16 0 -19 7 -19 50 0 43 3 50 20 50 17 0 20 7 20 50 l0 50 100 0
100 0 0 -50z m2800 0 c0 -49 1 -50 30 -50 29 0 30 -1 30 -50 0 -49 -1 -50 -30
-50 l-30 0 0 -189 c0 -209 6 -241 45 -241 23 0 25 -3 25 -50 l0 -50 -90 0
c-99 0 -140 13 -162 53 -9 15 -14 90 -16 250 -4 215 -5 227 -23 227 -16 0 -19
7 -19 50 0 43 3 50 20 50 17 0 20 7 20 50 l0 50 100 0 100 0 0 -50z m-3837
-48 c29 -27 33 -27 40 -2 5 18 14 20 103 20 l97 0 -5 -319 c-6 -362 -6 -364
-90 -411 -51 -29 -173 -39 -254 -21 -64 15 -114 64 -114 111 l0 30 93 0 c81 0
94 -2 105 -20 26 -43 62 -12 62 54 l0 36 -37 -20 c-49 -26 -118 -26 -160 0
-58 35 -63 57 -63 275 0 213 4 233 57 275 38 30 131 25 166 -8z m2110 16 c54
-16 112 -73 126 -123 6 -22 11 -79 11 -127 l0 -88 -125 0 -125 0 0 -100 c0
-81 3 -102 15 -106 32 -12 45 15 45 92 l0 74 96 0 96 0 -3 -78 c-4 -88 -26
-131 -86 -172 -41 -28 -155 -39 -221 -21 -55 15 -119 73 -133 120 -7 22 -9
108 -7 226 3 180 4 192 27 229 46 73 174 107 284 74z m690 -16 c29 -27 33 -27
40 -2 5 18 14 20 103 20 l97 0 -5 -319 c-6 -362 -6 -364 -90 -411 -51 -29
-173 -39 -254 -21 -64 15 -114 64 -114 111 l0 30 93 0 c81 0 94 -2 105 -20 26
-43 62 -12 62 54 l0 36 -37 -20 c-49 -26 -118 -26 -160 0 -58 35 -63 57 -63
275 0 213 4 233 57 275 38 30 131 25 166 -8z m-3083 -307 l0 -325 -105 0 -105
0 0 325 0 325 105 0 105 0 0 -325z m2800 0 l0 -325 -105 0 -105 0 0 325 0 325
105 0 105 0 0 -325z"/>
<path d="M3509 4594 l-24 -26 0 -775 0 -775 28 -24 c26 -22 37 -24 127 -24 90
0 101 2 127 24 l28 24 3 209 c2 130 8 213 14 221 18 21 61 10 75 -18 7 -14 13
-55 13 -92 l0 -68 71 0 c121 0 109 -56 109 525 0 581 12 525 -109 525 l-71 0
0 -349 c0 -192 -4 -361 -9 -374 -11 -28 -37 -38 -69 -26 l-21 8 -3 495 -3 494
-24 26 c-23 25 -29 26 -131 26 -102 0 -108 -1 -131 -26z"/>
<path d="M1058 4309 c-17 -9 -18 -45 -18 -514 0 -581 -12 -525 109 -525 l71 0
0 525 0 525 -72 0 c-40 0 -81 -5 -90 -11z"/>
<path d="M2662 4313 c-13 -3 -32 -19 -43 -36 -16 -28 -19 -51 -19 -169 0 -83
5 -147 12 -163 10 -23 16 -25 73 -25 89 0 95 11 95 184 0 80 -5 145 -11 160
-10 20 -67 60 -81 55 -1 -1 -13 -4 -26 -6z"/>
<path d="M2359 4231 c-29 -29 -29 -30 -29 -151 0 -133 9 -161 59 -178 34 -12
84 7 101 38 16 30 15 252 -1 278 -30 48 -89 54 -130 13z"/>
<path d="M2912 4233 c-29 -12 -42 -62 -42 -165 0 -136 8 -148 94 -148 58 0 64
2 74 25 16 34 16 220 0 248 -6 12 -18 27 -27 34 -16 12 -75 16 -99 6z"/>
<path d="M2085 4195 c-24 -23 -25 -31 -25 -135 0 -104 1 -112 25 -135 33 -34
84 -34 119 1 25 26 26 31 26 134 0 103 -1 108 -26 134 -35 35 -86 35 -119 1z"/>
<path d="M1740 3790 l0 -130 385 0 385 0 -7 33 c-9 41 -9 65 0 101 7 25 6 28
-10 20 -10 -4 -42 -10 -70 -12 -43 -3 -61 1 -97 21 l-45 25 -48 -25 c-92 -47
-205 -16 -248 68 l-16 29 -114 0 -115 0 0 -130z"/>
<path d="M3150 3900 c14 -11 27 -20 30 -20 18 -1 42 -70 48 -137 l7 -78 73 -3
72 -3 0 131 0 130 -127 0 -128 0 25 -20z"/>
<path d="M1045 1878 c-3 -13 -4 -95 -3 -183 3 -152 4 -160 23 -160 19 0 20 7
20 180 0 162 -2 180 -17 183 -11 2 -19 -5 -23 -20z"/>
<path d="M3845 1878 c-3 -13 -4 -95 -3 -183 3 -152 4 -160 23 -160 19 0 20 7
20 180 0 162 -2 180 -17 183 -11 2 -19 -5 -23 -20z"/>
</g>
</svg>
